<svg xmlns="http://www.w3.org/2000/svg"  viewBox="0 0 32 32" width="64px" height="64px"><path d="M31.84,12.983l-0.006-0.089l-0.014-0.088c-0.056-0.366-0.096-0.808-0.138-1.275 c-0.076-0.847-0.154-1.722-0.358-2.544c-0.375-2.087-2.223-4.063-4.365-4.666c-2.241-0.807-4.676-1.415-7.441-1.859 c-2.352-0.367-4.641-0.587-7.358-0.805c-0.793-0.08-1.537-0.121-2.233-0.121c-5.018,0-7.029,2.244-7.832,4.125L2.046,5.775 l-0.034,0.12L1.685,7.039L1.633,7.219L1.608,7.434c-0.185,2.03-0.062,3.982,0.058,5.87c0.029,0.466,0.059,0.93,0.083,1.39 l0.002,0.041l0.004,0.04c0.07,0.748,0.109,1.567,0.151,2.433c0.069,1.437,0.141,2.923,0.362,4.321 c0.502,2.966,2.339,5.666,5.043,7.429c1.986,1.346,4.681,2.098,7.56,2.098c0.16,0,0.32-0.002,0.478-0.007l0.027,0l0.027-0.002 c1.034-0.058,2.094-0.073,3.118-0.086c2.327-0.032,4.733-0.065,7.218-0.595c6.437-1.387,6.304-8.332,6.247-10.678 C32.026,17.323,31.978,15.13,31.84,12.983z" opacity=".3"/><path fill="#fff" d="M30.838,11.983l-0.006-0.089l-0.014-0.088c-0.057-0.366-0.098-0.808-0.14-1.275 C30.6,9.685,30.521,8.81,30.313,7.987c-0.381-2.087-2.26-4.063-4.438-4.666c-2.279-0.807-4.754-1.415-7.566-1.859 c-2.392-0.367-4.719-0.587-7.482-0.805c-0.807-0.08-1.563-0.121-2.271-0.121c-5.103,0-7.148,2.244-7.964,4.125l-0.05,0.114 l-0.034,0.12L0.175,6.039L0.122,6.219L0.096,6.434c-0.188,2.03-0.063,3.982,0.059,5.87c0.03,0.466,0.06,0.93,0.084,1.39 l0.002,0.041l0.004,0.04c0.071,0.748,0.111,1.567,0.154,2.433c0.07,1.437,0.144,2.923,0.368,4.321 c0.511,2.966,2.378,5.666,5.128,7.429c2.019,1.346,4.76,2.098,7.688,2.098c0.163,0,0.325-0.002,0.486-0.007l0.028,0l0.028-0.002 c1.052-0.058,2.129-0.073,3.17-0.086c2.366-0.032,4.813-0.065,7.34-0.595c6.545-1.387,6.41-8.332,6.353-10.678 C31.026,16.323,30.977,14.13,30.838,11.983z"/><path d="M26.797,12.265c-0.196-0.929-0.301-2.444-0.562-3.311c-0.326-1.008-0.672-1.297-1.746-1.642 c-2.155-0.667-4.437-1.062-6.73-1.303c-3.238-0.268-7.031-0.656-10.225-0.458C6.65,5.666,5.86,6.158,5.704,6.541l0.106-0.27 L5.478,7.413l0.056-0.333C5.372,11.066,5.733,15.8,5.899,19.79c0.312,2.696,2.763,5.01,5.397,5.728 c2.998,0.728,6.319,0.364,9.422,0.463c2.088-0.033,4.26-0.218,5.386-1.557c1.235-1.511,1.049-3.797,1.069-5.734 C27.145,16.542,27.011,14.398,26.797,12.265L26.797,12.265z M28.684,12.11c0.14,2.193,0.178,4.39,0.142,6.583 c0.089,3.634-0.352,7.787-4.634,8.715c-3.337,0.717-6.598,0.449-9.974,0.641c-2.301,0.067-4.864-0.418-6.84-1.764 c-2.029-1.33-3.704-3.497-4.137-6.067c-0.331-2.106-0.305-4.58-0.495-6.628c-0.118-2.261-0.36-4.609-0.145-6.975 c0,0,0.008-0.028,0.008-0.028l0.326-1.144c1.32-3.109,5.357-3.062,8.011-2.792c2.369,0.191,4.764,0.41,7.161,0.786 c2.398,0.387,4.78,0.941,7.114,1.792c1.338,0.349,2.768,1.742,2.989,3.17C28.498,9.513,28.511,10.986,28.684,12.11L28.684,12.11z"/><path d="M21.867,15.35c-0.171-0.63-0.128-1.527-0.517-1.963c-2.343-0.832-5.004-0.792-7.518-0.885 c-0.639-0.027-1.195-0.05-1.551,0.021c-0.34,0.026-0.559,0.268-0.44,0.136l0.108-0.271l-0.177,0.595l0.057-0.336 c-0.081,1.949,0.088,4.545,0.115,6.504c0.504,3.215,4.605,2.822,7.146,2.87c1.087,0.009,2.107-0.102,2.547-0.609 c0.479-0.499,0.551-1.607,0.448-2.735L21.867,15.35L21.867,15.35z M23.754,15.194l-0.017,3.487c0.008,1.28,0.067,2.646-0.83,3.803 c-0.952,1.163-2.455,1.317-3.753,1.406c0,0-3.462,0.165-3.462,0.165c-3.712,0.27-6.748-2.426-6.597-6.317 c0,0-0.134-1.681-0.134-1.681c-0.074-1.229-0.243-2.582-0.062-3.908c0.16-0.952,0.809-1.765,1.56-2.128 c1.063-0.623,2.573-0.517,3.547-0.418c2.563,0.245,5.168,0.579,7.627,1.534c0.789,0.197,1.777,1.15,1.884,2.009 C23.673,13.895,23.675,14.51,23.754,15.194L23.754,15.194z"/><circle cx="24" cy="10" r="1"/><path d="M17,16c0.551,0,1,0.449,1,1s-0.449,1-1,1s-1-0.449-1-1S16.449,16,17,16 M17,14c-1.657,0-3,1.343-3,3s1.343,3,3,3 s3-1.343,3-3S18.657,14,17,14L17,14z"/></svg>