<svg xmlns="http://www.w3.org/2000/svg"  viewBox="0 0 32 32" width="64px" height="64px"><path d="M16.563,2c-1.929,0-3.806,0.402-5.579,1.196C9.473,3.828,8.257,4.754,7.081,5.65L6.6,6.015 l-0.04,0.029L6.523,6.076c-2.747,2.293-4.349,5.712-4.51,9.625c-0.171,4.148,1.374,8.251,4.133,10.977 C8.825,29.454,12.441,31,16.295,31c4.001,0,7.897-1.642,10.687-4.507c2.65-2.719,4.076-6.349,4.016-10.221 C30.918,8.407,24.443,2,16.563,2z" opacity=".3"/><path fill="#fff" d="M15.563,1c-1.929,0-3.806,0.402-5.579,1.196C8.473,2.828,7.257,3.754,6.081,4.65L5.6,5.015 l-0.04,0.029L5.523,5.076c-2.747,2.293-4.349,5.712-4.51,9.625c-0.171,4.148,1.374,8.251,4.133,10.977 C7.825,28.454,11.441,30,15.295,30c4.001,0,7.897-1.642,10.687-4.507c2.65-2.719,4.076-6.349,4.016-10.221 C29.918,7.407,23.443,1,15.563,1z"/><path d="M10.76,4.059C9.245,4.681,7.99,5.703,6.68,6.68c-5.278,4.362-5.047,13.225-0.262,17.902 c7.942,8.141,22.222,2.361,22.044-9.082C28.37,6.591,18.858,0.452,10.76,4.059z M16.914,25.451v-7.394h2.279 c0.317,0,0.585-0.236,0.624-0.551l0.236-1.886c0.023-0.179-0.033-0.358-0.153-0.494c-0.119-0.135-0.29-0.212-0.471-0.212h-2.514 v-2.2c0-0.693,0.564-1.257,1.257-1.257h1.257c0.347,0,0.629-0.281,0.629-0.629V8.707c0-0.326-0.249-0.597-0.573-0.626 C19.447,8.078,18.561,8,17.438,8c-2.77,0-4.296,1.645-4.296,4.631v2.283h-2.514c-0.347,0-0.629,0.281-0.629,0.629v1.886 c0,0.348,0.282,0.629,0.629,0.629h2.514v7.291c-1.716-0.385-3.382-1.245-4.824-2.667C5.395,19.9,4.427,15.3,5.974,11.555 c1.076-2.47,2.776-4.973,5.464-5.861c6.674-2.798,14.455,2.623,14.1,9.807C25.477,20.902,21.474,24.709,16.914,25.451z"/></svg>